<svg width="33" height="33" viewBox="0 0 33 33" fill="none" xmlns="http://www.w3.org/2000/svg">
<path d="M17.2526 14.9572C17.2526 16.925 16.0543 19.68 16.0543 19.68M16.4538 15.7443C16.4538 15.7443 17.652 12.5958 14.8561 10.2344C12.0601 7.87303 7.6665 8.66016 7.6665 8.66016C7.6665 8.66016 7.6665 11.8087 10.063 14.1701C12.4595 16.5314 16.4538 15.7443 16.4538 15.7443ZM17.2526 14.1701C17.2526 14.1701 16.0543 11.0215 18.8503 8.66016C21.6462 6.29877 26.0398 7.0859 26.0398 7.0859C26.0398 7.0859 26.0398 10.2344 23.6433 12.5958C21.2468 14.9572 17.2526 14.1701 17.2526 14.1701Z" stroke="white" stroke-width="3" stroke-linecap="round" stroke-linejoin="round"/>
<path d="M10.5291 19.6802H21.0573C21.0573 19.6802 21.8671 26.7468 15.7932 26.7468C9.7192 26.7468 10.5291 19.6802 10.5291 19.6802Z" stroke="white" stroke-width="3" stroke-linecap="round" stroke-linejoin="round"/>
<path d="M1.30664 11.942V8.14364C1.30664 4.3605 4.3605 1.30664 8.14364 1.30664H11.942" stroke="white" stroke-width="2" stroke-linecap="round" stroke-linejoin="round"/>
<path d="M21.0581 1.30664H24.8564C28.6396 1.30664 31.6934 4.3605 31.6934 8.14364V11.942" stroke="white" stroke-width="2" stroke-linecap="round" stroke-linejoin="round"/>
<path d="M31.6936 22.5776V24.8566C31.6936 28.6398 28.6398 31.6936 24.8566 31.6936H22.5776" stroke="white" stroke-width="2" stroke-linecap="round" stroke-linejoin="round"/>
<path d="M11.942 31.6934H8.14364C4.3605 31.6934 1.30664 28.6396 1.30664 24.8564V21.0581" stroke="white" stroke-width="2" stroke-linecap="round" stroke-linejoin="round"/>
<rect x="0.550098" y="16.0965" width="31.9" height="1" rx="0.5" fill="white" stroke="#9B9B9B" stroke-width="0.1"/>
</svg>
